<svg width="30" height="30" viewBox="0 0 30 30" fill="#EACA22" xmlns="http://www.w3.org/2000/svg">
    <path fill-rule="evenodd" clip-rule="evenodd" d="M15.524 29.0875C15.4781 29.0875 15.4337 29.0875 15.3863 29.0861C11.3795 29.0517 7.63941 27.4441 4.85441 24.5644C-0.418728 19.1077 -0.583648 10.0773 4.48585 4.43414C6.06478 2.67452 7.99219 1.35086 10.2122 0.500442C10.7356 0.296802 11.3307 0.423002 11.7309 0.81881C12.1324 1.21318 12.2658 1.80546 12.0722 2.33321C10.4689 6.71434 11.5602 11.6705 14.8557 14.9589C18.1498 18.2473 23.1204 19.3386 27.5159 17.7382C28.0436 17.5431 28.6359 17.6808 29.0288 18.0795C29.4232 18.481 29.5465 19.0762 29.3457 19.5996C28.5943 21.5543 27.4671 23.2895 25.9957 24.7566C23.195 27.5531 19.4792 29.0875 15.524 29.0875" fill="#EACA22"/>
</svg>
