<svg width="16" height="17" viewBox="0 0 16 17" fill="none" xmlns="http://www.w3.org/2000/svg">
<g clip-path="url(#clip0_1723_5598)">
<path d="M15.9582 6.18487C15.9071 6.02629 15.8104 5.88627 15.6802 5.78226C15.55 5.67826 15.3921 5.61488 15.2261 5.60003L10.6081 5.18074L8.78199 0.906586C8.71646 0.753484 8.60744 0.622982 8.46844 0.531264C8.32943 0.439545 8.16657 0.390644 8.00003 0.390625C7.83339 0.390643 7.67044 0.43963 7.53141 0.531499C7.39239 0.623369 7.28343 0.754068 7.21807 0.907354L5.39192 5.18074L0.773248 5.60011C0.607504 5.61529 0.449859 5.67878 0.319861 5.78272C0.189862 5.88665 0.0932256 6.02645 0.0419335 6.18479C-0.00976218 6.34316 -0.0137493 6.51324 0.030468 6.67385C0.0746854 6.83447 0.165155 6.97855 0.290621 7.08815L3.78129 10.1495L2.75201 14.6837C2.71488 14.8463 2.72643 15.0163 2.78522 15.1724C2.84402 15.3285 2.94744 15.4639 3.08263 15.5616C3.22739 15.6668 3.40172 15.7236 3.58068 15.7238C3.73434 15.7236 3.88504 15.6816 4.01668 15.6024L8.00012 13.2216L11.9821 15.6024C12.1247 15.6881 12.2894 15.73 12.4556 15.7227C12.6218 15.7155 12.7823 15.6595 12.9168 15.5616C13.052 15.4638 13.1554 15.3285 13.2142 15.1724C13.273 15.0163 13.2846 14.8463 13.2476 14.6837L12.2183 10.1495L15.7089 7.08883C15.8345 6.97915 15.9251 6.83499 15.9694 6.67427C16.0137 6.51354 16.0099 6.34334 15.9583 6.18479L15.9582 6.18487Z" fill="#FBBF24"/>
</g>
<defs>
<clipPath id="clip0_1723_5598">
<rect width="16" height="16" fill="white" transform="translate(0 0.0839844)"/>
</clipPath>
</defs>
</svg>
