<svg width="53" height="46" viewBox="0 0 53 46" fill="none" xmlns="http://www.w3.org/2000/svg">
<g id="zorro" clip-path="url(#clip0_1723_6665)">
<g id="g8587">
<g id="g8325">
<path id="rect8309" d="M10.5996 7.04883H14.1336V10.5756H10.5996V7.04883Z" fill="white"/>
<path id="rect8311" d="M38.8672 7.04883H42.4012V10.5756H38.8672V7.04883Z" fill="white"/>
<path id="rect8313" d="M10.5996 10.5762H14.1336V14.1029H10.5996V10.5762Z" fill="white"/>
<path id="rect8315" d="M14.1328 10.5762H17.6668V14.1029H14.1328V10.5762Z" fill="white"/>
<path id="rect8317" d="M35.334 10.5762H38.868V14.1029H35.334V10.5762Z" fill="white"/>
<path id="rect8319" d="M38.8672 10.5762H42.4012V14.1029H38.8672V10.5762Z" fill="white"/>
<path id="rect8321" d="M10.5996 14.1016H14.1336V17.6283H10.5996V14.1016Z" fill="white"/>
<path id="rect8323" d="M38.8672 14.1016H42.4012V17.6283H38.8672V14.1016Z" fill="white"/>
</g>
<g id="g8437">
<path id="rect8327" d="M10.5977 21.1562H14.1316V24.683H10.5977V21.1562Z" fill="#E38334"/>
<g id="g8435">
<path id="rect8329" d="M10.5977 3.52539H14.1316V7.05211H10.5977V3.52539Z" fill="#E38334"/>
<path id="rect8331" d="M38.8672 3.52539H42.4012V7.05211H38.8672V3.52539Z" fill="#E38334"/>
<path id="rect8333" d="M14.1328 7.04883H17.6668V10.5756H14.1328V7.04883Z" fill="#E38334"/>
<path id="rect8335" d="M35.332 7.04883H38.866V10.5756H35.332V7.04883Z" fill="#E38334"/>
<path id="rect8337" d="M17.666 10.5762H21.2V14.1029H17.666V10.5762Z" fill="#E38334"/>
<path id="rect8339" d="M31.7988 10.5762H35.3328V14.1029H31.7988V10.5762Z" fill="#E38334"/>
<path id="rect8341" d="M21.1992 14.1016H24.7332V17.6283H21.1992V14.1016Z" fill="#E38334"/>
<path id="rect8343" d="M24.7305 14.1016H28.2644V17.6283H24.7305V14.1016Z" fill="#E38334"/>
<path id="rect8345" d="M28.2656 14.1016H31.7996V17.6283H28.2656V14.1016Z" fill="#E38334"/>
<path id="rect8347" d="M14.1328 17.6289H17.6668V21.1556H14.1328V17.6289Z" fill="#E38334"/>
<path id="rect8349" d="M17.666 17.6289H21.2V21.1556H17.666V17.6289Z" fill="#E38334"/>
<path id="rect8351" d="M21.1992 17.6289H24.7332V21.1556H21.1992V17.6289Z" fill="#E38334"/>
<path id="rect8353" d="M24.7305 17.6289H28.2644V21.1556H24.7305V17.6289Z" fill="#E38334"/>
<path id="rect8355" d="M28.2656 17.6289H31.7996V21.1556H28.2656V17.6289Z" fill="#E38334"/>
<path id="rect8357" d="M31.7988 17.6289H35.3328V21.1556H31.7988V17.6289Z" fill="#E38334"/>
<path id="rect8359" d="M35.332 17.6289H38.866V21.1556H35.332V17.6289Z" fill="#E38334"/>
<path id="rect8361" d="M14.1328 21.1543H17.6668V24.681H14.1328V21.1543Z" fill="#E38334"/>
<path id="rect8363" d="M17.666 21.1543H21.2V24.681H17.666V21.1543Z" fill="#E38334"/>
<path id="rect8365" d="M21.1992 21.1543H24.7332V24.681H21.1992V21.1543Z" fill="#E38334"/>
<path id="rect8367" d="M24.7305 21.1543H28.2644V24.681H24.7305V21.1543Z" fill="#E38334"/>
<path id="rect8369" d="M28.2656 21.1543H31.7996V24.681H28.2656V21.1543Z" fill="#E38334"/>
<path id="rect8371" d="M31.7988 21.1543H35.3328V24.681H31.7988V21.1543Z" fill="#E38334"/>
<path id="rect8373" d="M35.332 21.1543H38.866V24.681H35.332V21.1543Z" fill="#E38334"/>
<path id="rect8375" d="M38.8672 21.1543H42.4012V24.681H38.8672V21.1543Z" fill="#E38334"/>
<path id="rect8377" d="M10.5977 24.6797H14.1316V28.2064H10.5977V24.6797Z" fill="#E38334"/>
<path id="rect8379" d="M17.666 24.6797H21.2V28.2064H17.666V24.6797Z" fill="#E38334"/>
<path id="rect8381" d="M21.1992 24.6797H24.7332V28.2064H21.1992V24.6797Z" fill="#E38334"/>
<path id="rect8383" d="M24.7305 24.6797H28.2644V28.2064H24.7305V24.6797Z" fill="#E38334"/>
<path id="rect8385" d="M28.2656 24.6797H31.7996V28.2064H28.2656V24.6797Z" fill="#E38334"/>
<path id="rect8387" d="M31.7988 24.6797H35.3328V28.2064H31.7988V24.6797Z" fill="#E38334"/>
<path id="rect8389" d="M38.8672 24.6797H42.4012V28.2064H38.8672V24.6797Z" fill="#E38334"/>
<path id="rect8391" d="M7.06641 28.2051H10.6004V31.7318H7.06641V28.2051Z" fill="#E38334"/>
<path id="rect8393" d="M10.5977 28.2051H14.1316V31.7318H10.5977V28.2051Z" fill="#E38334"/>
<path id="rect8395" d="M17.666 28.2051H21.2V31.7318H17.666V28.2051Z" fill="#E38334"/>
<path id="rect8397" d="M31.7988 28.2051H35.3328V31.7318H31.7988V28.2051Z" fill="#E38334"/>
<path id="rect8399" d="M38.8672 28.2051H42.4012V31.7318H38.8672V28.2051Z" fill="#E38334"/>
<path id="rect8401" d="M42.3984 28.2051H45.9324V31.7318H42.3984V28.2051Z" fill="#E38334"/>
<path id="rect8403" d="M7.06641 31.7344H10.6004V35.2611H7.06641V31.7344Z" fill="#E38334"/>
<path id="rect8405" d="M10.5977 31.7344H14.1316V35.2611H10.5977V31.7344Z" fill="#E38334"/>
<path id="rect8407" d="M14.1328 31.7344H17.6668V35.2611H14.1328V31.7344Z" fill="#E38334"/>
<path id="rect8409" d="M17.666 31.7344H21.2V35.2611H17.666V31.7344Z" fill="#E38334"/>
<path id="rect8411" d="M31.7988 31.7344H35.3328V35.2611H31.7988V31.7344Z" fill="#E38334"/>
<path id="rect8413" d="M35.332 31.7344H38.866V35.2611H35.332V31.7344Z" fill="#E38334"/>
<path id="rect8415" d="M38.8672 31.7344H42.4012V35.2611H38.8672V31.7344Z" fill="#E38334"/>
<path id="rect8417" d="M42.3984 31.7344H45.9324V35.2611H42.3984V31.7344Z" fill="#E38334"/>
<path id="rect8419" d="M3.5332 35.2598H7.06717V38.7865H3.5332V35.2598Z" fill="#E38334"/>
<path id="rect8421" d="M7.06641 35.2598H10.6004V38.7865H7.06641V35.2598Z" fill="#E38334"/>
<path id="rect8423" d="M10.5977 35.2598H14.1316V38.7865H10.5977V35.2598Z" fill="#E38334"/>
<path id="rect8425" d="M14.1328 35.2598H17.6668V38.7865H14.1328V35.2598Z" fill="#E38334"/>
<path id="rect8427" d="M35.332 35.2598H38.866V38.7865H35.332V35.2598Z" fill="#E38334"/>
<path id="rect8429" d="M38.8672 35.2598H42.4012V38.7865H38.8672V35.2598Z" fill="#E38334"/>
<path id="rect8431" d="M42.3984 35.2598H45.9324V38.7865H42.3984V35.2598Z" fill="#E38334"/>
<path id="rect8433" d="M45.9316 35.2598H49.4656V38.7865H45.9316V35.2598Z" fill="#E38334"/>
</g>
</g>
<g id="g8471">
<path id="rect8439" d="M21.2012 31.7344H24.7351V35.2611H21.2012V31.7344Z" fill="white"/>
<path id="rect8441" d="M28.2656 31.7344H31.7996V35.2611H28.2656V31.7344Z" fill="white"/>
<path id="rect8443" d="M17.668 35.2617H21.2019V38.7884H17.668V35.2617Z" fill="white"/>
<path id="rect8445" d="M21.2012 35.2617H24.7351V38.7884H21.2012V35.2617Z" fill="white"/>
<path id="rect8447" d="M24.7324 35.2617H28.2664V38.7884H24.7324V35.2617Z" fill="white"/>
<path id="rect8449" d="M28.2656 35.2617H31.7996V38.7884H28.2656V35.2617Z" fill="white"/>
<path id="rect8451" d="M31.8008 35.2617H35.3348V38.7884H31.8008V35.2617Z" fill="white"/>
<path id="rect8453" d="M10.5996 38.7871H14.1336V42.3138H10.5996V38.7871Z" fill="white"/>
<path id="rect8455" d="M14.1328 38.7871H17.6668V42.3138H14.1328V38.7871Z" fill="white"/>
<path id="rect8457" d="M17.668 38.7871H21.2019V42.3138H17.668V38.7871Z" fill="white"/>
<path id="rect8459" d="M21.2012 38.7871H24.7351V42.3138H21.2012V38.7871Z" fill="white"/>
<path id="rect8461" d="M24.7324 38.7871H28.2664V42.3138H24.7324V38.7871Z" fill="white"/>
<path id="rect8463" d="M28.2656 38.7871H31.7996V42.3138H28.2656V38.7871Z" fill="white"/>
<path id="rect8465" d="M31.8008 38.7871H35.3348V42.3138H31.8008V38.7871Z" fill="white"/>
<path id="rect8467" d="M35.334 38.7871H38.868V42.3138H35.334V38.7871Z" fill="white"/>
<path id="rect8469" d="M38.8672 38.7871H42.4012V42.3138H38.8672V38.7871Z" fill="white"/>
</g>
<g id="g8585">
<path id="rect8473" d="M10.5996 0H14.1336V3.52672H10.5996V0Z" fill="black"/>
<path id="rect8475" d="M38.8672 0H42.4012V3.52672H38.8672V0Z" fill="black"/>
<path id="rect8477" d="M7.06836 3.52734H10.6023V7.05407H7.06836V3.52734Z" fill="black"/>
<path id="rect8479" d="M14.1328 3.52734H17.6668V7.05407H14.1328V3.52734Z" fill="black"/>
<path id="rect8481" d="M35.334 3.52734H38.868V7.05407H35.334V3.52734Z" fill="black"/>
<path id="rect8483" d="M42.3984 3.52734H45.9324V7.05407H42.3984V3.52734Z" fill="black"/>
<path id="rect8485" d="M7.06836 7.05078H10.6023V10.5775H7.06836V7.05078Z" fill="black"/>
<path id="rect8487" d="M17.666 7.05078H21.2V10.5775H17.666V7.05078Z" fill="black"/>
<path id="rect8489" d="M31.7988 7.05078H35.3328V10.5775H31.7988V7.05078Z" fill="black"/>
<path id="rect8491" d="M42.3984 7.05078H45.9324V10.5775H42.3984V7.05078Z" fill="black"/>
<path id="rect8493" d="M7.06836 10.5762H10.6023V14.1029H7.06836V10.5762Z" fill="black"/>
<path id="rect8495" d="M21.2012 10.5762H24.7351V14.1029H21.2012V10.5762Z" fill="black"/>
<path id="rect8497" d="M24.7324 10.5762H28.2664V14.1029H24.7324V10.5762Z" fill="black"/>
<path id="rect8499" d="M28.2656 10.5762H31.7996V14.1029H28.2656V10.5762Z" fill="black"/>
<path id="rect8501" d="M42.3984 10.5762H45.9324V14.1029H42.3984V10.5762Z" fill="black"/>
<path id="rect8503" d="M7.06836 14.1035H10.6023V17.6302H7.06836V14.1035Z" fill="black"/>
<path id="rect8505" d="M14.1328 14.1035H17.6668V17.6302H14.1328V14.1035Z" fill="black"/>
<path id="rect8507" d="M17.666 14.1035H21.2V17.6302H17.666V14.1035Z" fill="black"/>
<path id="rect8509" d="M31.7988 14.1035H35.3328V17.6302H31.7988V14.1035Z" fill="black"/>
<path id="rect8511" d="M35.334 14.1035H38.868V17.6302H35.334V14.1035Z" fill="black"/>
<path id="rect8513" d="M42.3984 14.1035H45.9324V17.6302H42.3984V14.1035Z" fill="black"/>
<path id="rect8515" d="M7.06836 17.6289H10.6023V21.1556H7.06836V17.6289Z" fill="black"/>
<path id="rect8517" d="M10.5996 17.6289H14.1336V21.1556H10.5996V17.6289Z" fill="black"/>
<path id="rect8519" d="M38.8672 17.6289H42.4012V21.1556H38.8672V17.6289Z" fill="black"/>
<path id="rect8521" d="M42.3984 17.6289H45.9324V21.1556H42.3984V17.6289Z" fill="black"/>
<path id="rect8523" d="M7.06836 21.1582H10.6023V24.6849H7.06836V21.1582Z" fill="black"/>
<path id="rect8525" d="M42.3984 21.1582H45.9324V24.6849H42.3984V21.1582Z" fill="black"/>
<path id="rect8527" d="M7.06836 24.6797H10.6023V28.2064H7.06836V24.6797Z" fill="black"/>
<path id="rect8529" d="M14.1328 24.6797H17.6668V28.2064H14.1328V24.6797Z" fill="black"/>
<path id="rect8531" d="M35.334 24.6797H38.868V28.2064H35.334V24.6797Z" fill="black"/>
<path id="rect8533" d="M42.3984 24.6797H45.9324V28.2064H42.3984V24.6797Z" fill="black"/>
<path id="rect8535" d="M3.5332 28.207H7.06717V31.7338H3.5332V28.207Z" fill="black"/>
<path id="rect8537" d="M14.1328 28.207H17.6668V31.7338H14.1328V28.207Z" fill="black"/>
<path id="rect8539" d="M21.2012 28.207H24.7351V31.7338H21.2012V28.207Z" fill="black"/>
<path id="rect8541" d="M24.7324 28.207H28.2664V31.7338H24.7324V28.207Z" fill="black"/>
<path id="rect8543" d="M28.2656 28.207H31.7996V31.7338H28.2656V28.207Z" fill="black"/>
<path id="rect8545" d="M35.334 28.207H38.868V31.7338H35.334V28.207Z" fill="black"/>
<path id="rect8547" d="M45.9316 28.207H49.4656V31.7338H45.9316V28.207Z" fill="black"/>
<path id="rect8549" d="M3.5332 31.7344H7.06717V35.2611H3.5332V31.7344Z" fill="black"/>
<path id="rect8551" d="M24.7324 31.7344H28.2664V35.2611H24.7324V31.7344Z" fill="black"/>
<path id="rect8553" d="M45.9316 31.7344H49.4656V35.2611H45.9316V31.7344Z" fill="black"/>
<path id="rect8555" d="M0 35.2617H3.53397V38.7884H0V35.2617Z" fill="black"/>
<path id="rect8557" d="M49.4668 35.2617H53.0008V38.7884H49.4668V35.2617Z" fill="black"/>
<path id="rect8559" d="M3.5332 38.7871H7.06717V42.3138H3.5332V38.7871Z" fill="black"/>
<path id="rect8561" d="M7.06836 38.7871H10.6023V42.3138H7.06836V38.7871Z" fill="black"/>
<path id="rect8563" d="M42.3984 38.7871H45.9324V42.3138H42.3984V38.7871Z" fill="black"/>
<path id="rect8565" d="M45.9316 38.7871H49.4656V42.3138H45.9316V38.7871Z" fill="black"/>
<path id="rect8567" d="M10.5996 42.3105H14.1336V45.8373H10.5996V42.3105Z" fill="black"/>
<path id="rect8569" d="M14.1328 42.3105H17.6668V45.8373H14.1328V42.3105Z" fill="black"/>
<path id="rect8571" d="M17.666 42.3105H21.2V45.8373H17.666V42.3105Z" fill="black"/>
<path id="rect8573" d="M21.2012 42.3105H24.7351V45.8373H21.2012V42.3105Z" fill="black"/>
<path id="rect8575" d="M24.7324 42.3105H28.2664V45.8373H24.7324V42.3105Z" fill="black"/>
<path id="rect8577" d="M28.2656 42.3105H31.7996V45.8373H28.2656V42.3105Z" fill="black"/>
<path id="rect8579" d="M31.7988 42.3105H35.3328V45.8373H31.7988V42.3105Z" fill="black"/>
<path id="rect8581" d="M35.334 42.3105H38.868V45.8373H35.334V42.3105Z" fill="black"/>
<path id="rect8583" d="M38.8672 42.3105H42.4012V45.8373H38.8672V42.3105Z" fill="black"/>
</g>
</g>
</g>
<defs>
<clipPath id="clip0_1723_6665">
<rect width="53" height="45.8378" fill="white"/>
</clipPath>
</defs>
</svg>
